<mxfile host="Electron" agent="Mozilla/5.0 (Windows NT 10.0; Win64; x64) AppleWebKit/537.36 (KHTML, like Gecko) draw.io/26.2.15 Chrome/134.0.6998.205 Electron/35.2.1 Safari/537.36" version="26.2.15">
  <diagram name="Page-1" id="vp1nK5lEmHjHC9K4giwZ">
    <mxGraphModel dx="4240" dy="2574" grid="1" gridSize="10" guides="1" tooltips="1" connect="1" arrows="1" fold="1" page="1" pageScale="1" pageWidth="850" pageHeight="1100" math="0" shadow="0">
      <root>
        <mxCell id="0" />
        <mxCell id="1" parent="0" />
        <mxCell id="snu1ZhS4cHu09ZBV1Wqe-69" value="" style="sketch=0;pointerEvents=1;shadow=0;dashed=0;html=1;strokeColor=#b85450;labelPosition=center;verticalLabelPosition=bottom;verticalAlign=top;align=center;fillColor=#f8cecc;shape=mxgraph.mscae.system_center.admin_console;gradientColor=#ea6b66;" parent="1" vertex="1">
          <mxGeometry x="-490" y="-880" width="70" height="60" as="geometry" />
        </mxCell>
        <mxCell id="DdtT8fx2l-fEaAFRYjGa-1" value="" style="html=1;verticalLabelPosition=bottom;align=center;labelBackgroundColor=#ffffff;verticalAlign=top;strokeWidth=2;strokeColor=#0080F0;shadow=0;dashed=0;shape=mxgraph.ios7.icons.user;" vertex="1" parent="1">
          <mxGeometry x="-795" y="-890" width="60" height="70" as="geometry" />
        </mxCell>
        <mxCell id="snu1ZhS4cHu09ZBV1Wqe-1" value="AWS Account" style="points=[[0,0],[0.25,0],[0.5,0],[0.75,0],[1,0],[1,0.25],[1,0.5],[1,0.75],[1,1],[0.75,1],[0.5,1],[0.25,1],[0,1],[0,0.75],[0,0.5],[0,0.25]];outlineConnect=0;gradientColor=none;html=1;whiteSpace=wrap;fontSize=24;fontStyle=0;container=1;pointerEvents=0;collapsible=0;recursiveResize=0;shape=mxgraph.aws4.group;grIcon=mxgraph.aws4.group_account;strokeColor=#CD2264;fillColor=none;verticalAlign=top;align=left;spacingLeft=30;fontColor=#CD2264;dashed=0;strokeWidth=2;" parent="1" vertex="1">
          <mxGeometry x="-1330" y="-720" width="1500" height="1490" as="geometry" />
        </mxCell>
        <mxCell id="snu1ZhS4cHu09ZBV1Wqe-2" value="VPC" style="points=[[0,0],[0.25,0],[0.5,0],[0.75,0],[1,0],[1,0.25],[1,0.5],[1,0.75],[1,1],[0.75,1],[0.5,1],[0.25,1],[0,1],[0,0.75],[0,0.5],[0,0.25]];outlineConnect=0;gradientColor=none;html=1;whiteSpace=wrap;fontSize=12;fontStyle=0;container=1;pointerEvents=0;collapsible=0;recursiveResize=0;shape=mxgraph.aws4.group;grIcon=mxgraph.aws4.group_vpc2;strokeColor=#8C4FFF;fillColor=none;verticalAlign=top;align=left;spacingLeft=30;fontColor=#AAB7B8;dashed=0;" parent="snu1ZhS4cHu09ZBV1Wqe-1" vertex="1">
          <mxGeometry x="110" y="150" width="990" height="1180" as="geometry" />
        </mxCell>
        <mxCell id="snu1ZhS4cHu09ZBV1Wqe-7" value="" style="rounded=1;arcSize=10;dashed=1;strokeColor=light-dark(#1d4ad3, #9a4e11);fillColor=none;gradientColor=none;dashPattern=8 4;strokeWidth=2;" parent="snu1ZhS4cHu09ZBV1Wqe-2" vertex="1">
          <mxGeometry x="610" y="50" width="300" height="1080" as="geometry" />
        </mxCell>
        <mxCell id="snu1ZhS4cHu09ZBV1Wqe-6" value="" style="rounded=1;arcSize=10;dashed=1;strokeColor=#F59D56;fillColor=none;gradientColor=none;dashPattern=8 4;strokeWidth=2;" parent="snu1ZhS4cHu09ZBV1Wqe-2" vertex="1">
          <mxGeometry x="90" y="45" width="255.5" height="1080" as="geometry" />
        </mxCell>
        <mxCell id="snu1ZhS4cHu09ZBV1Wqe-11" value="&lt;font style=&quot;font-size: 18px;&quot;&gt;&lt;b&gt;private subnet&lt;/b&gt;&lt;/font&gt;" style="points=[[0,0],[0.25,0],[0.5,0],[0.75,0],[1,0],[1,0.25],[1,0.5],[1,0.75],[1,1],[0.75,1],[0.5,1],[0.25,1],[0,1],[0,0.75],[0,0.5],[0,0.25]];outlineConnect=0;html=1;whiteSpace=wrap;fontSize=12;fontStyle=0;container=1;pointerEvents=0;collapsible=0;recursiveResize=0;shape=mxgraph.aws4.group;grIcon=mxgraph.aws4.group_security_group;grStroke=0;strokeColor=#6c8ebf;fillColor=#dae8fc;verticalAlign=top;align=left;spacingLeft=30;dashed=0;gradientColor=#7ea6e0;" parent="snu1ZhS4cHu09ZBV1Wqe-2" vertex="1">
          <mxGeometry x="180" y="480" width="610" height="220" as="geometry" />
        </mxCell>
        <mxCell id="DdtT8fx2l-fEaAFRYjGa-29" value="" style="rounded=1;whiteSpace=wrap;html=1;arcSize=0;" vertex="1" parent="snu1ZhS4cHu09ZBV1Wqe-11">
          <mxGeometry x="80" y="40" width="380" height="150" as="geometry" />
        </mxCell>
        <mxCell id="snu1ZhS4cHu09ZBV1Wqe-76" value="" style="rounded=0;whiteSpace=wrap;html=1;" parent="snu1ZhS4cHu09ZBV1Wqe-11" vertex="1">
          <mxGeometry x="110" y="70" width="254.62" height="102.5" as="geometry" />
        </mxCell>
        <mxCell id="-DxOXhttkhe_J2SDbOk9-1" value="" style="sketch=0;aspect=fixed;pointerEvents=1;shadow=0;dashed=0;html=1;strokeColor=none;labelPosition=center;verticalLabelPosition=bottom;verticalAlign=top;align=center;fillColor=#00188D;shape=mxgraph.mscae.enterprise.lock_unlocked" parent="snu1ZhS4cHu09ZBV1Wqe-11" vertex="1">
          <mxGeometry x="310" y="110" width="37.74" height="51" as="geometry" />
        </mxCell>
        <mxCell id="-DxOXhttkhe_J2SDbOk9-6" value="" style="sketch=0;outlineConnect=0;fontColor=#232F3E;gradientColor=none;fillColor=#ED7100;strokeColor=none;dashed=0;verticalLabelPosition=bottom;verticalAlign=top;align=center;html=1;fontSize=12;fontStyle=0;aspect=fixed;pointerEvents=1;shape=mxgraph.aws4.auto_scaling2;" parent="snu1ZhS4cHu09ZBV1Wqe-11" vertex="1">
          <mxGeometry x="370" y="112.5" width="67.5" height="67.5" as="geometry" />
        </mxCell>
        <mxCell id="DdtT8fx2l-fEaAFRYjGa-32" value="" style="sketch=0;points=[[0,0,0],[0.25,0,0],[0.5,0,0],[0.75,0,0],[1,0,0],[0,1,0],[0.25,1,0],[0.5,1,0],[0.75,1,0],[1,1,0],[0,0.25,0],[0,0.5,0],[0,0.75,0],[1,0.25,0],[1,0.5,0],[1,0.75,0]];outlineConnect=0;fontColor=#232F3E;fillColor=#ED7100;strokeColor=#ffffff;dashed=0;verticalLabelPosition=bottom;verticalAlign=top;align=center;html=1;fontSize=12;fontStyle=0;aspect=fixed;shape=mxgraph.aws4.resourceIcon;resIcon=mxgraph.aws4.ec2;direction=south;" vertex="1" parent="snu1ZhS4cHu09ZBV1Wqe-11">
          <mxGeometry x="255" y="87.5" width="65" height="65" as="geometry" />
        </mxCell>
        <mxCell id="DdtT8fx2l-fEaAFRYjGa-49" value="" style="sketch=0;points=[[0,0,0],[0.25,0,0],[0.5,0,0],[0.75,0,0],[1,0,0],[0,1,0],[0.25,1,0],[0.5,1,0],[0.75,1,0],[1,1,0],[0,0.25,0],[0,0.5,0],[0,0.75,0],[1,0.25,0],[1,0.5,0],[1,0.75,0]];outlineConnect=0;fontColor=#232F3E;fillColor=#ED7100;strokeColor=#ffffff;dashed=0;verticalLabelPosition=bottom;verticalAlign=top;align=center;html=1;fontSize=12;fontStyle=0;aspect=fixed;shape=mxgraph.aws4.resourceIcon;resIcon=mxgraph.aws4.ec2;direction=south;" vertex="1" parent="snu1ZhS4cHu09ZBV1Wqe-11">
          <mxGeometry x="140" y="87.5" width="62.5" height="62.5" as="geometry" />
        </mxCell>
        <mxCell id="DdtT8fx2l-fEaAFRYjGa-51" value="" style="sketch=0;aspect=fixed;pointerEvents=1;shadow=0;dashed=0;html=1;strokeColor=none;labelPosition=center;verticalLabelPosition=bottom;verticalAlign=top;align=center;fillColor=#00188D;shape=mxgraph.mscae.enterprise.lock_unlocked" vertex="1" parent="snu1ZhS4cHu09ZBV1Wqe-11">
          <mxGeometry x="120" y="110" width="37.74" height="51" as="geometry" />
        </mxCell>
        <mxCell id="DdtT8fx2l-fEaAFRYjGa-87" value="&lt;b&gt;&lt;font style=&quot;font-size: 21px;&quot;&gt;Backend TG&lt;/font&gt;&lt;/b&gt;" style="text;html=1;align=center;verticalAlign=middle;resizable=0;points=[];autosize=1;strokeColor=none;fillColor=none;" vertex="1" parent="snu1ZhS4cHu09ZBV1Wqe-11">
          <mxGeometry x="320" width="150" height="40" as="geometry" />
        </mxCell>
        <mxCell id="DdtT8fx2l-fEaAFRYjGa-94" value="&lt;b&gt;&lt;font&gt;http:8080&lt;/font&gt;&lt;/b&gt;" style="text;html=1;align=center;verticalAlign=middle;resizable=0;points=[];autosize=1;strokeColor=none;fillColor=none;fontSize=22;" vertex="1" parent="snu1ZhS4cHu09ZBV1Wqe-11">
          <mxGeometry x="177.31" y="140" width="120" height="40" as="geometry" />
        </mxCell>
        <mxCell id="snu1ZhS4cHu09ZBV1Wqe-15" value="&lt;b&gt;&lt;font style=&quot;font-size: 22px;&quot;&gt;database subnet&lt;/font&gt;&lt;/b&gt;" style="points=[[0,0],[0.25,0],[0.5,0],[0.75,0],[1,0],[1,0.25],[1,0.5],[1,0.75],[1,1],[0.75,1],[0.5,1],[0.25,1],[0,1],[0,0.75],[0,0.5],[0,0.25]];outlineConnect=0;html=1;whiteSpace=wrap;fontSize=12;fontStyle=0;container=1;pointerEvents=0;collapsible=0;recursiveResize=0;shape=mxgraph.aws4.group;grIcon=mxgraph.aws4.group_security_group;grStroke=0;strokeColor=#b85450;fillColor=#f8cecc;verticalAlign=top;align=left;spacingLeft=30;dashed=0;gradientColor=#ea6b66;" parent="snu1ZhS4cHu09ZBV1Wqe-2" vertex="1">
          <mxGeometry x="157.5" y="800" width="622.5" height="240" as="geometry" />
        </mxCell>
        <mxCell id="snu1ZhS4cHu09ZBV1Wqe-58" value="" style="outlineConnect=0;dashed=0;verticalLabelPosition=bottom;verticalAlign=top;align=center;html=1;shape=mxgraph.aws3.rds_db_instance;fillColor=#2E73B8;gradientColor=none;" parent="snu1ZhS4cHu09ZBV1Wqe-15" vertex="1">
          <mxGeometry x="242.51" y="80" width="64.5" height="80" as="geometry" />
        </mxCell>
        <mxCell id="snu1ZhS4cHu09ZBV1Wqe-59" value="" style="sketch=0;aspect=fixed;pointerEvents=1;shadow=0;dashed=0;html=1;strokeColor=none;labelPosition=center;verticalLabelPosition=bottom;verticalAlign=top;align=center;fillColor=#00188D;shape=mxgraph.mscae.enterprise.lock_unlocked" parent="snu1ZhS4cHu09ZBV1Wqe-15" vertex="1">
          <mxGeometry x="292.5" y="130" width="37.01" height="50" as="geometry" />
        </mxCell>
        <mxCell id="DdtT8fx2l-fEaAFRYjGa-97" value="&lt;b&gt;&lt;font&gt;mysql:3306&lt;/font&gt;&lt;/b&gt;" style="text;html=1;align=center;verticalAlign=middle;resizable=0;points=[];autosize=1;strokeColor=none;fillColor=none;fontSize=22;" vertex="1" parent="snu1ZhS4cHu09ZBV1Wqe-15">
          <mxGeometry x="207.5" y="190" width="140" height="40" as="geometry" />
        </mxCell>
        <mxCell id="snu1ZhS4cHu09ZBV1Wqe-23" value="&lt;font style=&quot;font-size: 22px;&quot;&gt;&lt;b&gt;public subnet&lt;/b&gt;&lt;/font&gt;" style="points=[[0,0],[0.25,0],[0.5,0],[0.75,0],[1,0],[1,0.25],[1,0.5],[1,0.75],[1,1],[0.75,1],[0.5,1],[0.25,1],[0,1],[0,0.75],[0,0.5],[0,0.25]];outlineConnect=0;html=1;whiteSpace=wrap;fontSize=12;fontStyle=0;container=1;pointerEvents=0;collapsible=0;recursiveResize=0;shape=mxgraph.aws4.group;grIcon=mxgraph.aws4.group_security_group;grStroke=0;strokeColor=#82b366;fillColor=#d5e8d4;verticalAlign=top;align=left;spacingLeft=30;dashed=0;gradientColor=#97d077;" parent="snu1ZhS4cHu09ZBV1Wqe-2" vertex="1">
          <mxGeometry x="170" y="95" width="640" height="265" as="geometry" />
        </mxCell>
        <mxCell id="kfcINKmC6DD-zsqxnV2i-9" value="" style="rounded=1;whiteSpace=wrap;html=1;" parent="snu1ZhS4cHu09ZBV1Wqe-23" vertex="1">
          <mxGeometry x="80" y="40" width="390" height="160" as="geometry" />
        </mxCell>
        <mxCell id="2kR_Qco9Klz7t-7Ovfso-1" value="" style="outlineConnect=0;dashed=0;verticalLabelPosition=bottom;verticalAlign=top;align=center;html=1;shape=mxgraph.aws3.vpc_nat_gateway;fillColor=#F58534;gradientColor=none;" parent="snu1ZhS4cHu09ZBV1Wqe-23" vertex="1">
          <mxGeometry x="20" y="35.099999999999994" width="50" height="59.9" as="geometry" />
        </mxCell>
        <mxCell id="kfcINKmC6DD-zsqxnV2i-1" value="" style="rounded=0;whiteSpace=wrap;html=1;" parent="snu1ZhS4cHu09ZBV1Wqe-23" vertex="1">
          <mxGeometry x="124.38" y="70" width="310" height="110" as="geometry" />
        </mxCell>
        <mxCell id="DdtT8fx2l-fEaAFRYjGa-53" value="" style="sketch=0;aspect=fixed;pointerEvents=1;shadow=0;dashed=0;html=1;strokeColor=none;labelPosition=center;verticalLabelPosition=bottom;verticalAlign=top;align=center;fillColor=#00188D;shape=mxgraph.mscae.enterprise.lock_unlocked" vertex="1" parent="snu1ZhS4cHu09ZBV1Wqe-23">
          <mxGeometry x="150" y="125" width="40.7" height="55" as="geometry" />
        </mxCell>
        <mxCell id="DdtT8fx2l-fEaAFRYjGa-56" value="" style="sketch=0;aspect=fixed;pointerEvents=1;shadow=0;dashed=0;html=1;strokeColor=none;labelPosition=center;verticalLabelPosition=bottom;verticalAlign=top;align=center;fillColor=#00188D;shape=mxgraph.mscae.enterprise.lock_unlocked" vertex="1" parent="snu1ZhS4cHu09ZBV1Wqe-23">
          <mxGeometry x="370.00000000000006" y="114.25" width="43.29" height="58.5" as="geometry" />
        </mxCell>
        <mxCell id="DdtT8fx2l-fEaAFRYjGa-59" value="" style="sketch=0;points=[[0,0,0],[0.25,0,0],[0.5,0,0],[0.75,0,0],[1,0,0],[0,1,0],[0.25,1,0],[0.5,1,0],[0.75,1,0],[1,1,0],[0,0.25,0],[0,0.5,0],[0,0.75,0],[1,0.25,0],[1,0.5,0],[1,0.75,0]];outlineConnect=0;fontColor=#232F3E;fillColor=#ED7100;strokeColor=#ffffff;dashed=0;verticalLabelPosition=bottom;verticalAlign=top;align=center;html=1;fontSize=12;fontStyle=0;aspect=fixed;shape=mxgraph.aws4.resourceIcon;resIcon=mxgraph.aws4.ec2;direction=south;" vertex="1" parent="snu1ZhS4cHu09ZBV1Wqe-23">
          <mxGeometry x="170" y="81.25" width="70" height="70" as="geometry" />
        </mxCell>
        <mxCell id="DdtT8fx2l-fEaAFRYjGa-60" value="" style="sketch=0;points=[[0,0,0],[0.25,0,0],[0.5,0,0],[0.75,0,0],[1,0,0],[0,1,0],[0.25,1,0],[0.5,1,0],[0.75,1,0],[1,1,0],[0,0.25,0],[0,0.5,0],[0,0.75,0],[1,0.25,0],[1,0.5,0],[1,0.75,0]];outlineConnect=0;fontColor=#232F3E;fillColor=#ED7100;strokeColor=#ffffff;dashed=0;verticalLabelPosition=bottom;verticalAlign=top;align=center;html=1;fontSize=12;fontStyle=0;aspect=fixed;shape=mxgraph.aws4.resourceIcon;resIcon=mxgraph.aws4.ec2;direction=south;" vertex="1" parent="snu1ZhS4cHu09ZBV1Wqe-23">
          <mxGeometry x="310" y="85" width="62.5" height="62.5" as="geometry" />
        </mxCell>
        <mxCell id="DdtT8fx2l-fEaAFRYjGa-88" value="&lt;b&gt;&lt;font style=&quot;font-size: 23px;&quot;&gt;Frontend TG&lt;/font&gt;&lt;/b&gt;" style="text;html=1;align=center;verticalAlign=middle;resizable=0;points=[];autosize=1;strokeColor=none;fillColor=none;" vertex="1" parent="snu1ZhS4cHu09ZBV1Wqe-23">
          <mxGeometry x="330" y="5" width="160" height="40" as="geometry" />
        </mxCell>
        <mxCell id="snu1ZhS4cHu09ZBV1Wqe-74" value="&lt;b&gt;&lt;font style=&quot;font-size: 17px;&quot;&gt;us-east-1a&lt;/font&gt;&lt;/b&gt;" style="text;html=1;align=center;verticalAlign=middle;resizable=0;points=[];autosize=1;strokeColor=none;fillColor=none;fontColor=#2A36FF;" parent="snu1ZhS4cHu09ZBV1Wqe-2" vertex="1">
          <mxGeometry x="180" y="50" width="110" height="30" as="geometry" />
        </mxCell>
        <mxCell id="snu1ZhS4cHu09ZBV1Wqe-73" value="&lt;b&gt;&lt;font style=&quot;font-size: 18px;&quot;&gt;us-east-1b&lt;/font&gt;&lt;/b&gt;" style="text;html=1;align=center;verticalAlign=middle;resizable=0;points=[];autosize=1;strokeColor=none;fillColor=none;fontColor=#2A36FF;" parent="snu1ZhS4cHu09ZBV1Wqe-2" vertex="1">
          <mxGeometry x="640" y="55" width="110" height="40" as="geometry" />
        </mxCell>
        <mxCell id="DdtT8fx2l-fEaAFRYjGa-79" value="" style="edgeStyle=orthogonalEdgeStyle;rounded=0;orthogonalLoop=1;jettySize=auto;html=1;entryX=0.5;entryY=0;entryDx=0;entryDy=0;flowAnimation=1;" edge="1" parent="snu1ZhS4cHu09ZBV1Wqe-2" source="cJABt7MItxLx58dAYeUD-1" target="kfcINKmC6DD-zsqxnV2i-1">
          <mxGeometry relative="1" as="geometry">
            <Array as="points">
              <mxPoint x="449" y="140" />
              <mxPoint x="449" y="140" />
            </Array>
          </mxGeometry>
        </mxCell>
        <mxCell id="cJABt7MItxLx58dAYeUD-1" value="" style="outlineConnect=0;dashed=0;verticalLabelPosition=bottom;verticalAlign=top;align=center;html=1;shape=mxgraph.aws3.application_load_balancer;fillColor=#F58536;gradientColor=none;" parent="snu1ZhS4cHu09ZBV1Wqe-2" vertex="1">
          <mxGeometry x="420" y="25" width="58.75" height="60" as="geometry" />
        </mxCell>
        <mxCell id="snu1ZhS4cHu09ZBV1Wqe-24" value="" style="sketch=0;outlineConnect=0;fontColor=#232F3E;gradientColor=none;fillColor=#8C4FFF;strokeColor=none;dashed=0;verticalLabelPosition=bottom;verticalAlign=top;align=center;html=1;fontSize=12;fontStyle=0;aspect=fixed;pointerEvents=1;shape=mxgraph.aws4.internet_gateway;" parent="snu1ZhS4cHu09ZBV1Wqe-2" vertex="1">
          <mxGeometry x="120" y="-40" width="65" height="65" as="geometry" />
        </mxCell>
        <mxCell id="DdtT8fx2l-fEaAFRYjGa-9" value="" style="rounded=0;whiteSpace=wrap;html=1;" vertex="1" parent="snu1ZhS4cHu09ZBV1Wqe-2">
          <mxGeometry x="640" y="170" width="150" height="90" as="geometry" />
        </mxCell>
        <mxCell id="snu1ZhS4cHu09ZBV1Wqe-65" value="" style="html=1;strokeWidth=1;shadow=0;dashed=0;shape=mxgraph.ios7.misc.vpn;fillColor=#007AFF;strokeColor=none;buttonText=;strokeColor2=#222222;fontColor=#222222;fontSize=8;verticalLabelPosition=bottom;verticalAlign=top;align=center;sketch=0;" parent="snu1ZhS4cHu09ZBV1Wqe-2" vertex="1">
          <mxGeometry x="730" y="187.52" width="40" height="34.97" as="geometry" />
        </mxCell>
        <mxCell id="snu1ZhS4cHu09ZBV1Wqe-63" value="" style="points=[];aspect=fixed;html=1;align=center;shadow=0;dashed=0;fillColor=#FF6A00;strokeColor=none;shape=mxgraph.alibaba_cloud.bastionhost;" parent="snu1ZhS4cHu09ZBV1Wqe-2" vertex="1">
          <mxGeometry x="660" y="194.59" width="46.31" height="36.65" as="geometry" />
        </mxCell>
        <mxCell id="DdtT8fx2l-fEaAFRYjGa-61" value="" style="sketch=0;aspect=fixed;pointerEvents=1;shadow=0;dashed=0;html=1;strokeColor=none;labelPosition=center;verticalLabelPosition=bottom;verticalAlign=top;align=center;fillColor=#00188D;shape=mxgraph.mscae.enterprise.lock_unlocked" vertex="1" parent="snu1ZhS4cHu09ZBV1Wqe-2">
          <mxGeometry x="387.26" y="45" width="32.74" height="44.25" as="geometry" />
        </mxCell>
        <mxCell id="DdtT8fx2l-fEaAFRYjGa-82" value="" style="edgeStyle=orthogonalEdgeStyle;rounded=0;orthogonalLoop=1;jettySize=auto;html=1;flowAnimation=1;entryX=0.623;entryY=0.04;entryDx=0;entryDy=0;entryPerimeter=0;" edge="1" parent="snu1ZhS4cHu09ZBV1Wqe-2" source="DdtT8fx2l-fEaAFRYjGa-62" target="snu1ZhS4cHu09ZBV1Wqe-76">
          <mxGeometry relative="1" as="geometry" />
        </mxCell>
        <mxCell id="DdtT8fx2l-fEaAFRYjGa-62" value="" style="outlineConnect=0;dashed=0;verticalLabelPosition=bottom;verticalAlign=top;align=center;html=1;shape=mxgraph.aws3.application_load_balancer;fillColor=#F58536;gradientColor=none;" vertex="1" parent="snu1ZhS4cHu09ZBV1Wqe-2">
          <mxGeometry x="410" y="370" width="78.75" height="55" as="geometry" />
        </mxCell>
        <mxCell id="DdtT8fx2l-fEaAFRYjGa-63" value="" style="sketch=0;aspect=fixed;pointerEvents=1;shadow=0;dashed=0;html=1;strokeColor=none;labelPosition=center;verticalLabelPosition=bottom;verticalAlign=top;align=center;fillColor=#00188D;shape=mxgraph.mscae.enterprise.lock_unlocked" vertex="1" parent="snu1ZhS4cHu09ZBV1Wqe-2">
          <mxGeometry x="413.01" y="420" width="32.74" height="44.25" as="geometry" />
        </mxCell>
        <mxCell id="DdtT8fx2l-fEaAFRYjGa-64" value="&lt;font&gt;expense-dev&lt;/font&gt;" style="text;html=1;align=center;verticalAlign=middle;resizable=0;points=[];autosize=1;strokeColor=none;fillColor=none;fontSize=18;" vertex="1" parent="snu1ZhS4cHu09ZBV1Wqe-2">
          <mxGeometry x="20" y="10" width="130" height="40" as="geometry" />
        </mxCell>
        <mxCell id="DdtT8fx2l-fEaAFRYjGa-66" value="&lt;font style=&quot;font-size: 19px;&quot;&gt;https:443&lt;/font&gt;" style="text;html=1;align=center;verticalAlign=middle;resizable=0;points=[];autosize=1;strokeColor=none;fillColor=none;" vertex="1" parent="snu1ZhS4cHu09ZBV1Wqe-2">
          <mxGeometry x="478.75" y="55" width="100" height="40" as="geometry" />
        </mxCell>
        <mxCell id="DdtT8fx2l-fEaAFRYjGa-65" value="&lt;font style=&quot;font-size: 18px;&quot;&gt;&lt;b&gt;web-ALB&lt;/b&gt;&lt;/font&gt;" style="text;html=1;align=center;verticalAlign=middle;resizable=0;points=[];autosize=1;strokeColor=none;fillColor=none;" vertex="1" parent="snu1ZhS4cHu09ZBV1Wqe-2">
          <mxGeometry x="520" y="15" width="100" height="40" as="geometry" />
        </mxCell>
        <mxCell id="DdtT8fx2l-fEaAFRYjGa-81" style="edgeStyle=orthogonalEdgeStyle;rounded=0;orthogonalLoop=1;jettySize=auto;html=1;entryX=0.5;entryY=0;entryDx=0;entryDy=0;entryPerimeter=0;flowAnimation=1;" edge="1" parent="snu1ZhS4cHu09ZBV1Wqe-2" source="kfcINKmC6DD-zsqxnV2i-1" target="DdtT8fx2l-fEaAFRYjGa-62">
          <mxGeometry relative="1" as="geometry" />
        </mxCell>
        <mxCell id="DdtT8fx2l-fEaAFRYjGa-83" value="&lt;b&gt;&lt;font style=&quot;font-size: 19px;&quot;&gt;APP ALB&lt;/font&gt;&lt;/b&gt;" style="text;html=1;align=center;verticalAlign=middle;resizable=0;points=[];autosize=1;strokeColor=none;fillColor=none;" vertex="1" parent="snu1ZhS4cHu09ZBV1Wqe-2">
          <mxGeometry x="478.75" y="425" width="110" height="40" as="geometry" />
        </mxCell>
        <mxCell id="DdtT8fx2l-fEaAFRYjGa-84" value="&lt;b&gt;&lt;font style=&quot;font-size: 22px;&quot;&gt;http:80&lt;/font&gt;&lt;/b&gt;" style="text;html=1;align=center;verticalAlign=middle;resizable=0;points=[];autosize=1;strokeColor=none;fillColor=none;" vertex="1" parent="snu1ZhS4cHu09ZBV1Wqe-2">
          <mxGeometry x="320" y="430" width="100" height="40" as="geometry" />
        </mxCell>
        <mxCell id="DdtT8fx2l-fEaAFRYjGa-93" value="" style="endArrow=classic;html=1;rounded=0;flowAnimation=1;" edge="1" parent="snu1ZhS4cHu09ZBV1Wqe-2">
          <mxGeometry width="50" height="50" relative="1" as="geometry">
            <mxPoint x="750" y="272" as="sourcePoint" />
            <mxPoint x="480" y="920" as="targetPoint" />
            <Array as="points">
              <mxPoint x="740" y="920" />
            </Array>
          </mxGeometry>
        </mxCell>
        <mxCell id="DdtT8fx2l-fEaAFRYjGa-96" value="" style="endArrow=classic;html=1;rounded=0;entryX=0.5;entryY=0.02;entryDx=0;entryDy=0;entryPerimeter=0;flowAnimation=1;" edge="1" parent="snu1ZhS4cHu09ZBV1Wqe-2" target="snu1ZhS4cHu09ZBV1Wqe-58">
          <mxGeometry width="50" height="50" relative="1" as="geometry">
            <mxPoint x="430" y="680" as="sourcePoint" />
            <mxPoint x="460" y="601.25" as="targetPoint" />
          </mxGeometry>
        </mxCell>
        <mxCell id="DdtT8fx2l-fEaAFRYjGa-99" value="" style="endArrow=classic;html=1;rounded=0;flowAnimation=1;" edge="1" parent="snu1ZhS4cHu09ZBV1Wqe-2">
          <mxGeometry width="50" height="50" relative="1" as="geometry">
            <mxPoint x="740" y="410" as="sourcePoint" />
            <mxPoint x="489" y="410" as="targetPoint" />
          </mxGeometry>
        </mxCell>
        <mxCell id="DdtT8fx2l-fEaAFRYjGa-3" value="" style="sketch=0;points=[[0,0,0],[0.25,0,0],[0.5,0,0],[0.75,0,0],[1,0,0],[0,1,0],[0.25,1,0],[0.5,1,0],[0.75,1,0],[1,1,0],[0,0.25,0],[0,0.5,0],[0,0.75,0],[1,0.25,0],[1,0.5,0],[1,0.75,0]];outlineConnect=0;fontColor=#232F3E;fillColor=#8C4FFF;strokeColor=#ffffff;dashed=0;verticalLabelPosition=bottom;verticalAlign=top;align=center;html=1;fontSize=12;fontStyle=0;aspect=fixed;shape=mxgraph.aws4.resourceIcon;resIcon=mxgraph.aws4.route_53;" vertex="1" parent="snu1ZhS4cHu09ZBV1Wqe-1">
          <mxGeometry x="530" y="20" width="70" height="70" as="geometry" />
        </mxCell>
        <mxCell id="snu1ZhS4cHu09ZBV1Wqe-36" value="" style="shape=table;startSize=0;container=1;collapsible=0;childLayout=tableLayout;" parent="snu1ZhS4cHu09ZBV1Wqe-1" vertex="1">
          <mxGeometry x="1120" y="950" width="180" height="120" as="geometry" />
        </mxCell>
        <mxCell id="snu1ZhS4cHu09ZBV1Wqe-37" value="" style="shape=tableRow;horizontal=0;startSize=0;swimlaneHead=0;swimlaneBody=0;strokeColor=inherit;top=0;left=0;bottom=0;right=0;collapsible=0;dropTarget=0;fillColor=none;points=[[0,0.5],[1,0.5]];portConstraint=eastwest;" parent="snu1ZhS4cHu09ZBV1Wqe-36" vertex="1">
          <mxGeometry width="180" height="40" as="geometry" />
        </mxCell>
        <mxCell id="snu1ZhS4cHu09ZBV1Wqe-38" value="&lt;b&gt;&lt;font style=&quot;font-size: 14px;&quot;&gt;CIDR&lt;/font&gt;&lt;/b&gt;" style="shape=partialRectangle;html=1;whiteSpace=wrap;connectable=0;strokeColor=#6c8ebf;overflow=hidden;fillColor=#dae8fc;top=0;left=0;bottom=0;right=0;pointerEvents=1;gradientColor=#7ea6e0;" parent="snu1ZhS4cHu09ZBV1Wqe-37" vertex="1">
          <mxGeometry width="90" height="40" as="geometry">
            <mxRectangle width="90" height="40" as="alternateBounds" />
          </mxGeometry>
        </mxCell>
        <mxCell id="snu1ZhS4cHu09ZBV1Wqe-39" value="&lt;b&gt;Destination&lt;/b&gt;" style="shape=partialRectangle;html=1;whiteSpace=wrap;connectable=0;strokeColor=#6c8ebf;overflow=hidden;fillColor=#dae8fc;top=0;left=0;bottom=0;right=0;pointerEvents=1;fontSize=14;gradientColor=#7ea6e0;" parent="snu1ZhS4cHu09ZBV1Wqe-37" vertex="1">
          <mxGeometry x="90" width="90" height="40" as="geometry">
            <mxRectangle width="90" height="40" as="alternateBounds" />
          </mxGeometry>
        </mxCell>
        <mxCell id="snu1ZhS4cHu09ZBV1Wqe-40" value="" style="shape=tableRow;horizontal=0;startSize=0;swimlaneHead=0;swimlaneBody=0;strokeColor=inherit;top=0;left=0;bottom=0;right=0;collapsible=0;dropTarget=0;fillColor=none;points=[[0,0.5],[1,0.5]];portConstraint=eastwest;" parent="snu1ZhS4cHu09ZBV1Wqe-36" vertex="1">
          <mxGeometry y="40" width="180" height="40" as="geometry" />
        </mxCell>
        <mxCell id="snu1ZhS4cHu09ZBV1Wqe-41" value="&lt;b&gt;&lt;font style=&quot;font-size: 14px;&quot;&gt;0.0.0.0/0&lt;/font&gt;&lt;/b&gt;" style="shape=partialRectangle;html=1;whiteSpace=wrap;connectable=0;strokeColor=#666666;overflow=hidden;fillColor=#f5f5f5;top=0;left=0;bottom=0;right=0;pointerEvents=1;gradientColor=#b3b3b3;" parent="snu1ZhS4cHu09ZBV1Wqe-40" vertex="1">
          <mxGeometry width="90" height="40" as="geometry">
            <mxRectangle width="90" height="40" as="alternateBounds" />
          </mxGeometry>
        </mxCell>
        <mxCell id="snu1ZhS4cHu09ZBV1Wqe-42" value="&lt;b&gt;&lt;font style=&quot;font-size: 14px;&quot;&gt;NAT&lt;/font&gt;&lt;/b&gt;" style="shape=partialRectangle;html=1;whiteSpace=wrap;connectable=0;strokeColor=#666666;overflow=hidden;fillColor=#f5f5f5;top=0;left=0;bottom=0;right=0;pointerEvents=1;gradientColor=#b3b3b3;" parent="snu1ZhS4cHu09ZBV1Wqe-40" vertex="1">
          <mxGeometry x="90" width="90" height="40" as="geometry">
            <mxRectangle width="90" height="40" as="alternateBounds" />
          </mxGeometry>
        </mxCell>
        <mxCell id="snu1ZhS4cHu09ZBV1Wqe-55" style="shape=tableRow;horizontal=0;startSize=0;swimlaneHead=0;swimlaneBody=0;strokeColor=inherit;top=0;left=0;bottom=0;right=0;collapsible=0;dropTarget=0;fillColor=none;points=[[0,0.5],[1,0.5]];portConstraint=eastwest;" parent="snu1ZhS4cHu09ZBV1Wqe-36" vertex="1">
          <mxGeometry y="80" width="180" height="40" as="geometry" />
        </mxCell>
        <mxCell id="snu1ZhS4cHu09ZBV1Wqe-56" value="&lt;b&gt;&lt;font style=&quot;font-size: 14px;&quot;&gt;10.0.0.0/16&lt;/font&gt;&lt;/b&gt;" style="shape=partialRectangle;html=1;whiteSpace=wrap;connectable=0;strokeColor=#666666;overflow=hidden;fillColor=#f5f5f5;top=0;left=0;bottom=0;right=0;pointerEvents=1;gradientColor=#b3b3b3;" parent="snu1ZhS4cHu09ZBV1Wqe-55" vertex="1">
          <mxGeometry width="90" height="40" as="geometry">
            <mxRectangle width="90" height="40" as="alternateBounds" />
          </mxGeometry>
        </mxCell>
        <mxCell id="snu1ZhS4cHu09ZBV1Wqe-57" value="&lt;b&gt;&lt;font style=&quot;font-size: 14px;&quot;&gt;local&lt;/font&gt;&lt;/b&gt;" style="shape=partialRectangle;html=1;whiteSpace=wrap;connectable=0;strokeColor=#666666;overflow=hidden;fillColor=#f5f5f5;top=0;left=0;bottom=0;right=0;pointerEvents=1;gradientColor=#b3b3b3;" parent="snu1ZhS4cHu09ZBV1Wqe-55" vertex="1">
          <mxGeometry x="90" width="90" height="40" as="geometry">
            <mxRectangle width="90" height="40" as="alternateBounds" />
          </mxGeometry>
        </mxCell>
        <mxCell id="snu1ZhS4cHu09ZBV1Wqe-49" style="shape=tableRow;horizontal=0;startSize=0;swimlaneHead=0;swimlaneBody=0;strokeColor=inherit;top=0;left=0;bottom=0;right=0;collapsible=0;dropTarget=0;fillColor=none;points=[[0,0.5],[1,0.5]];portConstraint=eastwest;" parent="snu1ZhS4cHu09ZBV1Wqe-1" vertex="1">
          <mxGeometry x="830" y="330" width="180" height="50" as="geometry" />
        </mxCell>
        <mxCell id="snu1ZhS4cHu09ZBV1Wqe-17" value="" style="shape=tableRow;horizontal=0;startSize=0;swimlaneHead=0;swimlaneBody=0;strokeColor=inherit;top=0;left=0;bottom=0;right=0;collapsible=0;dropTarget=0;fillColor=none;points=[[0,0.5],[1,0.5]];portConstraint=eastwest;" parent="snu1ZhS4cHu09ZBV1Wqe-1" vertex="1">
          <mxGeometry x="830" y="250" width="180" height="40" as="geometry" />
        </mxCell>
        <mxCell id="snu1ZhS4cHu09ZBV1Wqe-20" value="" style="shape=tableRow;horizontal=0;startSize=0;swimlaneHead=0;swimlaneBody=0;strokeColor=inherit;top=0;left=0;bottom=0;right=0;collapsible=0;dropTarget=0;fillColor=none;points=[[0,0.5],[1,0.5]];portConstraint=eastwest;" parent="snu1ZhS4cHu09ZBV1Wqe-1" vertex="1">
          <mxGeometry x="830" y="290" width="180" height="40" as="geometry" />
        </mxCell>
        <mxCell id="snu1ZhS4cHu09ZBV1Wqe-29" value="" style="shape=table;startSize=0;container=1;collapsible=0;childLayout=tableLayout;" parent="snu1ZhS4cHu09ZBV1Wqe-1" vertex="1">
          <mxGeometry x="1130" y="595" width="180" height="125" as="geometry" />
        </mxCell>
        <mxCell id="snu1ZhS4cHu09ZBV1Wqe-30" value="" style="shape=tableRow;horizontal=0;startSize=0;swimlaneHead=0;swimlaneBody=0;strokeColor=inherit;top=0;left=0;bottom=0;right=0;collapsible=0;dropTarget=0;fillColor=none;points=[[0,0.5],[1,0.5]];portConstraint=eastwest;" parent="snu1ZhS4cHu09ZBV1Wqe-29" vertex="1">
          <mxGeometry width="180" height="43" as="geometry" />
        </mxCell>
        <mxCell id="snu1ZhS4cHu09ZBV1Wqe-31" value="&lt;b&gt;&lt;font style=&quot;font-size: 14px;&quot;&gt;CIDR&lt;/font&gt;&lt;/b&gt;" style="shape=partialRectangle;html=1;whiteSpace=wrap;connectable=0;strokeColor=#6c8ebf;overflow=hidden;fillColor=#dae8fc;top=0;left=0;bottom=0;right=0;pointerEvents=1;gradientColor=#7ea6e0;" parent="snu1ZhS4cHu09ZBV1Wqe-30" vertex="1">
          <mxGeometry width="90" height="43" as="geometry">
            <mxRectangle width="90" height="43" as="alternateBounds" />
          </mxGeometry>
        </mxCell>
        <mxCell id="snu1ZhS4cHu09ZBV1Wqe-32" value="&lt;b&gt;Destination&lt;/b&gt;" style="shape=partialRectangle;html=1;whiteSpace=wrap;connectable=0;strokeColor=#6c8ebf;overflow=hidden;fillColor=#dae8fc;top=0;left=0;bottom=0;right=0;pointerEvents=1;fontSize=14;gradientColor=#7ea6e0;" parent="snu1ZhS4cHu09ZBV1Wqe-30" vertex="1">
          <mxGeometry x="90" width="90" height="43" as="geometry">
            <mxRectangle width="90" height="43" as="alternateBounds" />
          </mxGeometry>
        </mxCell>
        <mxCell id="snu1ZhS4cHu09ZBV1Wqe-33" value="" style="shape=tableRow;horizontal=0;startSize=0;swimlaneHead=0;swimlaneBody=0;strokeColor=inherit;top=0;left=0;bottom=0;right=0;collapsible=0;dropTarget=0;fillColor=none;points=[[0,0.5],[1,0.5]];portConstraint=eastwest;" parent="snu1ZhS4cHu09ZBV1Wqe-29" vertex="1">
          <mxGeometry y="43" width="180" height="44" as="geometry" />
        </mxCell>
        <mxCell id="snu1ZhS4cHu09ZBV1Wqe-34" value="&lt;b&gt;&lt;font style=&quot;font-size: 14px;&quot;&gt;0.0.0.0/0&lt;/font&gt;&lt;/b&gt;" style="shape=partialRectangle;html=1;whiteSpace=wrap;connectable=0;strokeColor=#666666;overflow=hidden;fillColor=#f5f5f5;top=0;left=0;bottom=0;right=0;pointerEvents=1;gradientColor=#b3b3b3;" parent="snu1ZhS4cHu09ZBV1Wqe-33" vertex="1">
          <mxGeometry width="90" height="44" as="geometry">
            <mxRectangle width="90" height="44" as="alternateBounds" />
          </mxGeometry>
        </mxCell>
        <mxCell id="snu1ZhS4cHu09ZBV1Wqe-35" value="&lt;b&gt;&lt;font style=&quot;font-size: 14px;&quot;&gt;NAT&lt;/font&gt;&lt;/b&gt;" style="shape=partialRectangle;html=1;whiteSpace=wrap;connectable=0;strokeColor=#666666;overflow=hidden;fillColor=#f5f5f5;top=0;left=0;bottom=0;right=0;pointerEvents=1;gradientColor=#b3b3b3;" parent="snu1ZhS4cHu09ZBV1Wqe-33" vertex="1">
          <mxGeometry x="90" width="90" height="44" as="geometry">
            <mxRectangle width="90" height="44" as="alternateBounds" />
          </mxGeometry>
        </mxCell>
        <mxCell id="snu1ZhS4cHu09ZBV1Wqe-52" style="shape=tableRow;horizontal=0;startSize=0;swimlaneHead=0;swimlaneBody=0;strokeColor=inherit;top=0;left=0;bottom=0;right=0;collapsible=0;dropTarget=0;fillColor=none;points=[[0,0.5],[1,0.5]];portConstraint=eastwest;" parent="snu1ZhS4cHu09ZBV1Wqe-29" vertex="1">
          <mxGeometry y="87" width="180" height="38" as="geometry" />
        </mxCell>
        <mxCell id="snu1ZhS4cHu09ZBV1Wqe-53" value="10.0.0.0/16" style="shape=partialRectangle;html=1;whiteSpace=wrap;connectable=0;strokeColor=#666666;overflow=hidden;fillColor=#f5f5f5;top=0;left=0;bottom=0;right=0;pointerEvents=1;gradientColor=#b3b3b3;fontSize=14;fontStyle=1" parent="snu1ZhS4cHu09ZBV1Wqe-52" vertex="1">
          <mxGeometry width="90" height="38" as="geometry">
            <mxRectangle width="90" height="38" as="alternateBounds" />
          </mxGeometry>
        </mxCell>
        <mxCell id="snu1ZhS4cHu09ZBV1Wqe-54" value="&lt;font style=&quot;font-size: 14px;&quot;&gt;&lt;b&gt;local&lt;/b&gt;&lt;/font&gt;" style="shape=partialRectangle;html=1;whiteSpace=wrap;connectable=0;strokeColor=#666666;overflow=hidden;fillColor=#f5f5f5;top=0;left=0;bottom=0;right=0;pointerEvents=1;gradientColor=#b3b3b3;" parent="snu1ZhS4cHu09ZBV1Wqe-52" vertex="1">
          <mxGeometry x="90" width="90" height="38" as="geometry">
            <mxRectangle width="90" height="38" as="alternateBounds" />
          </mxGeometry>
        </mxCell>
        <mxCell id="DdtT8fx2l-fEaAFRYjGa-34" value="" style="shape=table;startSize=0;container=1;collapsible=0;childLayout=tableLayout;" vertex="1" parent="snu1ZhS4cHu09ZBV1Wqe-1">
          <mxGeometry x="1140" y="280" width="180" height="125" as="geometry" />
        </mxCell>
        <mxCell id="DdtT8fx2l-fEaAFRYjGa-35" value="" style="shape=tableRow;horizontal=0;startSize=0;swimlaneHead=0;swimlaneBody=0;strokeColor=inherit;top=0;left=0;bottom=0;right=0;collapsible=0;dropTarget=0;fillColor=none;points=[[0,0.5],[1,0.5]];portConstraint=eastwest;" vertex="1" parent="DdtT8fx2l-fEaAFRYjGa-34">
          <mxGeometry width="180" height="43" as="geometry" />
        </mxCell>
        <mxCell id="DdtT8fx2l-fEaAFRYjGa-36" value="&lt;b&gt;&lt;font style=&quot;font-size: 14px;&quot;&gt;CIDR&lt;/font&gt;&lt;/b&gt;" style="shape=partialRectangle;html=1;whiteSpace=wrap;connectable=0;strokeColor=#6c8ebf;overflow=hidden;fillColor=#dae8fc;top=0;left=0;bottom=0;right=0;pointerEvents=1;gradientColor=#7ea6e0;" vertex="1" parent="DdtT8fx2l-fEaAFRYjGa-35">
          <mxGeometry width="90" height="43" as="geometry">
            <mxRectangle width="90" height="43" as="alternateBounds" />
          </mxGeometry>
        </mxCell>
        <mxCell id="DdtT8fx2l-fEaAFRYjGa-37" value="&lt;b&gt;Destination&lt;/b&gt;" style="shape=partialRectangle;html=1;whiteSpace=wrap;connectable=0;strokeColor=#6c8ebf;overflow=hidden;fillColor=#dae8fc;top=0;left=0;bottom=0;right=0;pointerEvents=1;fontSize=14;gradientColor=#7ea6e0;" vertex="1" parent="DdtT8fx2l-fEaAFRYjGa-35">
          <mxGeometry x="90" width="90" height="43" as="geometry">
            <mxRectangle width="90" height="43" as="alternateBounds" />
          </mxGeometry>
        </mxCell>
        <mxCell id="DdtT8fx2l-fEaAFRYjGa-38" value="" style="shape=tableRow;horizontal=0;startSize=0;swimlaneHead=0;swimlaneBody=0;strokeColor=inherit;top=0;left=0;bottom=0;right=0;collapsible=0;dropTarget=0;fillColor=none;points=[[0,0.5],[1,0.5]];portConstraint=eastwest;" vertex="1" parent="DdtT8fx2l-fEaAFRYjGa-34">
          <mxGeometry y="43" width="180" height="44" as="geometry" />
        </mxCell>
        <mxCell id="DdtT8fx2l-fEaAFRYjGa-39" value="&lt;b&gt;&lt;font style=&quot;font-size: 14px;&quot;&gt;0.0.0.0/0&lt;/font&gt;&lt;/b&gt;" style="shape=partialRectangle;html=1;whiteSpace=wrap;connectable=0;strokeColor=#666666;overflow=hidden;fillColor=#f5f5f5;top=0;left=0;bottom=0;right=0;pointerEvents=1;gradientColor=#b3b3b3;" vertex="1" parent="DdtT8fx2l-fEaAFRYjGa-38">
          <mxGeometry width="90" height="44" as="geometry">
            <mxRectangle width="90" height="44" as="alternateBounds" />
          </mxGeometry>
        </mxCell>
        <mxCell id="DdtT8fx2l-fEaAFRYjGa-40" value="&lt;b&gt;&lt;font style=&quot;font-size: 14px;&quot;&gt;IGW&lt;/font&gt;&lt;/b&gt;" style="shape=partialRectangle;html=1;whiteSpace=wrap;connectable=0;strokeColor=#666666;overflow=hidden;fillColor=#f5f5f5;top=0;left=0;bottom=0;right=0;pointerEvents=1;gradientColor=#b3b3b3;" vertex="1" parent="DdtT8fx2l-fEaAFRYjGa-38">
          <mxGeometry x="90" width="90" height="44" as="geometry">
            <mxRectangle width="90" height="44" as="alternateBounds" />
          </mxGeometry>
        </mxCell>
        <mxCell id="DdtT8fx2l-fEaAFRYjGa-41" style="shape=tableRow;horizontal=0;startSize=0;swimlaneHead=0;swimlaneBody=0;strokeColor=inherit;top=0;left=0;bottom=0;right=0;collapsible=0;dropTarget=0;fillColor=none;points=[[0,0.5],[1,0.5]];portConstraint=eastwest;" vertex="1" parent="DdtT8fx2l-fEaAFRYjGa-34">
          <mxGeometry y="87" width="180" height="38" as="geometry" />
        </mxCell>
        <mxCell id="DdtT8fx2l-fEaAFRYjGa-42" value="10.0.0.0/16" style="shape=partialRectangle;html=1;whiteSpace=wrap;connectable=0;strokeColor=#666666;overflow=hidden;fillColor=#f5f5f5;top=0;left=0;bottom=0;right=0;pointerEvents=1;gradientColor=#b3b3b3;fontSize=14;fontStyle=1" vertex="1" parent="DdtT8fx2l-fEaAFRYjGa-41">
          <mxGeometry width="90" height="38" as="geometry">
            <mxRectangle width="90" height="38" as="alternateBounds" />
          </mxGeometry>
        </mxCell>
        <mxCell id="DdtT8fx2l-fEaAFRYjGa-43" value="&lt;font style=&quot;font-size: 14px;&quot;&gt;&lt;b&gt;local&lt;/b&gt;&lt;/font&gt;" style="shape=partialRectangle;html=1;whiteSpace=wrap;connectable=0;strokeColor=#666666;overflow=hidden;fillColor=#f5f5f5;top=0;left=0;bottom=0;right=0;pointerEvents=1;gradientColor=#b3b3b3;" vertex="1" parent="DdtT8fx2l-fEaAFRYjGa-41">
          <mxGeometry x="90" width="90" height="38" as="geometry">
            <mxRectangle width="90" height="38" as="alternateBounds" />
          </mxGeometry>
        </mxCell>
        <mxCell id="DdtT8fx2l-fEaAFRYjGa-33" value="&lt;font style=&quot;font-size: 21px;&quot;&gt;https://expense-dev.gurudevops.online&lt;/font&gt;" style="text;html=1;align=center;verticalAlign=middle;resizable=0;points=[];autosize=1;strokeColor=none;fillColor=none;fontStyle=1;fontSize=19;" vertex="1" parent="1">
          <mxGeometry x="-1280" y="-780" width="380" height="40" as="geometry" />
        </mxCell>
        <mxCell id="DdtT8fx2l-fEaAFRYjGa-67" value="" style="endArrow=classic;html=1;rounded=0;entryX=0.5;entryY=0;entryDx=0;entryDy=0;entryPerimeter=0;flowAnimation=1;exitX=0.5;exitY=1;exitDx=0;exitDy=0;exitPerimeter=0;" edge="1" parent="1" source="DdtT8fx2l-fEaAFRYjGa-1" target="DdtT8fx2l-fEaAFRYjGa-3">
          <mxGeometry width="50" height="50" relative="1" as="geometry">
            <mxPoint x="-660" y="-770" as="sourcePoint" />
            <mxPoint x="-660" y="-680" as="targetPoint" />
          </mxGeometry>
        </mxCell>
        <mxCell id="DdtT8fx2l-fEaAFRYjGa-71" value="" style="endArrow=classic;html=1;rounded=0;flowAnimation=1;" edge="1" parent="1">
          <mxGeometry width="50" height="50" relative="1" as="geometry">
            <mxPoint x="-471" y="-840" as="sourcePoint" />
            <mxPoint x="-470" y="-400" as="targetPoint" />
          </mxGeometry>
        </mxCell>
      </root>
    </mxGraphModel>
  </diagram>
</mxfile>
